<svg xmlns="http://www.w3.org/2000/svg" aria-hidden="true" style="position:absolute;width:0;height:0;overflow:hidden">
  <defs>
    <symbol id="icon-airbnb" viewBox="0 0 104 32">
      <path d="M54.812 8.04c0 1.153-.942 2.082-2.112 2.082s-2.112-.929-2.112-2.082c0-1.153.91-2.082 2.112-2.082 1.202.032 2.112.961 2.112 2.082zm-8.707 4.196v.512s-1.007-1.281-3.151-1.281c-3.541 0-6.303 2.659-6.303 6.342 0 3.652 2.729 6.342 6.303 6.342 2.177 0 3.151-1.313 3.151-1.313v.545a.44.44 0 0 0 .455.448h2.632V11.787H46.56a.461.461 0 0 0-.455.448zm0 7.72c-.487.705-1.462 1.313-2.632 1.313-2.079 0-3.671-1.281-3.671-3.459s1.592-3.459 3.671-3.459c1.137 0 2.177.641 2.632 1.313v4.292zm5.035-8.168h3.119v12.044H51.14V11.788zm46.589-.321c-2.144 0-3.151 1.281-3.151 1.281V5.989h-3.119v17.842h2.631c.26 0 .455-.224.455-.448v-.545s1.007 1.313 3.151 1.313c3.541 0 6.303-2.691 6.303-6.342s-2.761-6.342-6.271-6.342zm-.519 9.77c-1.202 0-2.145-.609-2.632-1.313v-4.292c.487-.641 1.527-1.313 2.632-1.313 2.079 0 3.671 1.281 3.671 3.459s-1.592 3.459-3.671 3.459zm-7.375-4.548v7.175h-3.119v-6.823c0-1.986-.65-2.787-2.405-2.787-.942 0-1.917.48-2.534 1.185v8.392h-3.119V11.787h2.469c.259 0 .455.224.455.448v.512c.909-.929 2.112-1.281 3.314-1.281 1.365 0 2.501.384 3.411 1.153 1.105.897 1.527 2.05 1.527 4.068zm-18.746-5.222c-2.144 0-3.151 1.281-3.151 1.281V5.989h-3.119v17.842h2.632c.26 0 .455-.224.455-.448v-.545s1.007 1.313 3.151 1.313c3.541 0 6.303-2.691 6.303-6.342.032-3.652-2.729-6.342-6.271-6.342zm-.52 9.77c-1.202 0-2.144-.609-2.631-1.313v-4.292c.487-.641 1.527-1.313 2.631-1.313 2.079 0 3.671 1.281 3.671 3.459s-1.592 3.459-3.671 3.459zm-8.447-9.77c.942 0 1.43.16 1.43.16v2.851s-2.599-.865-4.224.961v8.424h-3.119V11.787h2.632c.26 0 .455.224.455.448v.512c.585-.673 1.852-1.281 2.827-1.281zM29.73 22.743c-.162-.384-.325-.801-.487-1.153-.26-.577-.52-1.121-.747-1.634l-.032-.032a332.851 332.851 0 0 0-7.18-14.479l-.097-.192c-.26-.48-.52-.993-.78-1.506-.325-.577-.65-1.185-1.17-1.762-1.04-1.281-2.534-1.986-4.126-1.986-1.624 0-3.086.705-4.159 1.922-.487.577-.845 1.185-1.17 1.762-.26.513-.52 1.025-.78 1.506l-.097.192c-2.502 4.805-4.938 9.674-7.18 14.479l-.032.064c-.227.513-.487 1.057-.747 1.634-.162.352-.325.737-.487 1.153-.422 1.185-.552 2.306-.39 3.459a6.825 6.825 0 0 0 4.224 5.317A6.763 6.763 0 0 0 6.925 32c.26 0 .585-.032.845-.064a8.658 8.658 0 0 0 3.249-1.089c1.332-.737 2.599-1.794 4.029-3.331 1.429 1.538 2.729 2.595 4.029 3.331a8.658 8.658 0 0 0 3.249 1.089c.26.032.585.064.845.064.91 0 1.819-.16 2.632-.513a6.814 6.814 0 0 0 4.224-5.317c.26-1.121.13-2.242-.292-3.427zm-14.652 1.665c-1.754-2.178-2.892-4.228-3.281-5.958-.162-.737-.195-1.377-.097-1.954a3.08 3.08 0 0 1 .52-1.345c.617-.865 1.657-1.409 2.859-1.409s2.274.513 2.859 1.409c.26.384.455.833.52 1.345.097.577.065 1.249-.097 1.954-.39 1.698-1.527 3.748-3.281 5.958zm12.963 1.506c-.227 1.666-1.365 3.107-2.957 3.748-.78.32-1.624.416-2.469.32-.812-.096-1.624-.352-2.469-.833-1.17-.641-2.339-1.634-3.704-3.107 2.144-2.595 3.444-4.965 3.931-7.079.227-.993.26-1.89.162-2.723a5.15 5.15 0 0 0-.877-2.178c-1.007-1.441-2.697-2.274-4.581-2.274s-3.574.865-4.581 2.274a5.154 5.154 0 0 0-.877 2.178 6.575 6.575 0 0 0 .162 2.723c.487 2.114 1.819 4.517 3.931 7.111-1.332 1.473-2.534 2.466-3.704 3.107-.845.48-1.657.737-2.469.833a5.27 5.27 0 0 1-2.469-.32c-1.592-.641-2.729-2.082-2.957-3.748a5.234 5.234 0 0 1 .292-2.498c.097-.32.26-.641.422-1.025.227-.512.487-1.057.747-1.602l.033-.064a347.406 347.406 0 0 1 7.148-14.382l.097-.192c.26-.48.52-.993.78-1.473.26-.513.552-.993.91-1.409.682-.769 1.592-1.185 2.599-1.185s1.917.416 2.599 1.185c.357.416.65.897.91 1.409.26.48.52.993.78 1.473l.097.192a424.08 424.08 0 0 1 7.115 14.414v.032c.26.513.487 1.089.747 1.602.162.384.325.705.422 1.025.26.833.357 1.634.227 2.466z"/>
    </symbol>
  </defs>
</svg>
