<svg xmlns="http://www.w3.org/2000/svg" aria-hidden="true" style="position:absolute;width:0;height:0;overflow:hidden">
  <defs>
    <symbol id="icon-Logo" viewBox="0 0 156 32">
      <path d="M111.032 10.414h.941c10.246 0 11.45 5.145 11.45 8.056v.657c0 2.868-1.182 8.144-11.45 8.144h-.941c-10.311 0-11.472-5.276-11.472-8.144v-.657c0-2.912 1.16-8.056 11.472-8.056zm7.049 8.516v-.306c0-1.861-1.073-4.269-6.59-4.269-5.605 0-6.59 2.408-6.59 4.269v.263c0 1.861 1.073 4.422 6.59 4.422 5.473 0 6.59-2.496 6.59-4.379zM83.236 10.699h5.101v12.238h11.319v4.05H83.237V10.699zM74.086 20.332l-3.153-6.108-3.021 6.108h6.174zm3.415 6.655-1.532-2.977h-9.874l-1.467 2.977h-5.189l8.232-16.288h6.612l8.713 16.288h-5.495zM50.048 27.271h-.898c-9.436 0-10.903-5.276-10.903-8.166v-.635c0-2.955 1.27-8.056 10.903-8.056h.898c9.436 0 10.903 4.51 10.903 6.415v.241h-5.407c-.131-.438-.788-2.715-5.955-2.715-4.882 0-5.999 2.189-5.999 4.225v.263c0 1.927 1.292 4.466 6.042 4.466 5.276 0 5.801-2.518 5.933-2.89h5.407v.241c0 2.058-1.62 6.612-10.924 6.612zM20.106 10.699H37.27v3.7H25.141v2.408h11.844v3.722H25.141V23.2h12.347v3.787H20.105V10.699zM2.462 10.699h5.101v12.238h11.318v4.05H2.462V10.699zM71.385 6.311 73.997.567h4.57l-4.57 5.744h-2.612zM151.703 27.419h-3.094V11.138h3.094v16.281zm-1.465-20.156c-1.172 0-2.116-.944-2.116-2.117s.944-2.117 2.116-2.117c1.173 0 2.117.944 2.117 2.117s-.944 2.117-2.117 2.117zM134.676 27.94c-5.633 0-6.676-4.559-6.676-9.313v-7.489h3.126v11.56c0 3.549 1.563 4.754 3.516 4.754 6.545 0 7.457-11.592 7.457-16.314h3.061l.032 16.281h-3.093v-9.508c-.684 3.94-2.442 10.029-7.424 10.029z"/>
    </symbol>
  </defs>
</svg>
