<svg xmlns="http://www.w3.org/2000/svg" aria-hidden="true" style="position:absolute;width:0;height:0;overflow:hidden">
  <defs>
    <symbol id="icon-arrow" viewBox="0 0 32 32">
      <path d="m16.105 29.82-3.049-3.02 9.133-9.133H0v-4.411h22.189l-9.133-9.118 3.049-3.034 14.358 14.358L16.105 29.82z"/>
    </symbol>
    <symbol id="icon-Frame" viewBox="0 0 104 32">
      <path d="M54.812 8.04c0 1.153-.942 2.082-2.112 2.082s-2.112-.929-2.112-2.082c0-1.153.91-2.082 2.112-2.082 1.202.032 2.112.961 2.112 2.082zm-8.707 4.196v.512s-1.007-1.281-3.151-1.281c-3.541 0-6.303 2.659-6.303 6.342 0 3.652 2.729 6.342 6.303 6.342 2.177 0 3.151-1.313 3.151-1.313v.545a.44.44 0 0 0 .455.448h2.632V11.787H46.56a.461.461 0 0 0-.455.448zm0 7.72c-.487.705-1.462 1.313-2.632 1.313-2.079 0-3.671-1.281-3.671-3.459s1.592-3.459 3.671-3.459c1.137 0 2.177.641 2.632 1.313v4.292zm5.035-8.168h3.119v12.044H51.14V11.788zm46.589-.321c-2.144 0-3.151 1.281-3.151 1.281V5.989h-3.119v17.842h2.631c.26 0 .455-.224.455-.448v-.545s1.007 1.313 3.151 1.313c3.541 0 6.303-2.691 6.303-6.342s-2.761-6.342-6.271-6.342zm-.519 9.77c-1.202 0-2.145-.609-2.632-1.313v-4.292c.487-.641 1.527-1.313 2.632-1.313 2.079 0 3.671 1.281 3.671 3.459s-1.592 3.459-3.671 3.459zm-7.375-4.548v7.175h-3.119v-6.823c0-1.986-.65-2.787-2.405-2.787-.942 0-1.917.48-2.534 1.185v8.392h-3.119V11.787h2.469c.259 0 .455.224.455.448v.512c.909-.929 2.112-1.281 3.314-1.281 1.365 0 2.501.384 3.411 1.153 1.105.897 1.527 2.05 1.527 4.068zm-18.746-5.222c-2.144 0-3.151 1.281-3.151 1.281V5.989h-3.119v17.842h2.632c.26 0 .455-.224.455-.448v-.545s1.007 1.313 3.151 1.313c3.541 0 6.303-2.691 6.303-6.342.032-3.652-2.729-6.342-6.271-6.342zm-.52 9.77c-1.202 0-2.144-.609-2.631-1.313v-4.292c.487-.641 1.527-1.313 2.631-1.313 2.079 0 3.671 1.281 3.671 3.459s-1.592 3.459-3.671 3.459zm-8.447-9.77c.942 0 1.43.16 1.43.16v2.851s-2.599-.865-4.224.961v8.424h-3.119V11.787h2.632c.26 0 .455.224.455.448v.512c.585-.673 1.852-1.281 2.827-1.281zM29.73 22.743c-.162-.384-.325-.801-.487-1.153-.26-.577-.52-1.121-.747-1.634l-.032-.032a332.851 332.851 0 0 0-7.18-14.479l-.097-.192c-.26-.48-.52-.993-.78-1.506-.325-.577-.65-1.185-1.17-1.762-1.04-1.281-2.534-1.986-4.126-1.986-1.624 0-3.086.705-4.159 1.922-.487.577-.845 1.185-1.17 1.762-.26.513-.52 1.025-.78 1.506l-.097.192c-2.502 4.805-4.938 9.674-7.18 14.479l-.032.064c-.227.513-.487 1.057-.747 1.634-.162.352-.325.737-.487 1.153-.422 1.185-.552 2.306-.39 3.459a6.825 6.825 0 0 0 4.224 5.317A6.763 6.763 0 0 0 6.925 32c.26 0 .585-.032.845-.064a8.658 8.658 0 0 0 3.249-1.089c1.332-.737 2.599-1.794 4.029-3.331 1.429 1.538 2.729 2.595 4.029 3.331a8.658 8.658 0 0 0 3.249 1.089c.26.032.585.064.845.064.91 0 1.819-.16 2.632-.513a6.814 6.814 0 0 0 4.224-5.317c.26-1.121.13-2.242-.292-3.427zm-14.652 1.665c-1.754-2.178-2.892-4.228-3.281-5.958-.162-.737-.195-1.377-.097-1.954a3.08 3.08 0 0 1 .52-1.345c.617-.865 1.657-1.409 2.859-1.409s2.274.513 2.859 1.409c.26.384.455.833.52 1.345.097.577.065 1.249-.097 1.954-.39 1.698-1.527 3.748-3.281 5.958zm12.963 1.506c-.227 1.666-1.365 3.107-2.957 3.748-.78.32-1.624.416-2.469.32-.812-.096-1.624-.352-2.469-.833-1.17-.641-2.339-1.634-3.704-3.107 2.144-2.595 3.444-4.965 3.931-7.079.227-.993.26-1.89.162-2.723a5.15 5.15 0 0 0-.877-2.178c-1.007-1.441-2.697-2.274-4.581-2.274s-3.574.865-4.581 2.274a5.154 5.154 0 0 0-.877 2.178 6.575 6.575 0 0 0 .162 2.723c.487 2.114 1.819 4.517 3.931 7.111-1.332 1.473-2.534 2.466-3.704 3.107-.845.48-1.657.737-2.469.833a5.27 5.27 0 0 1-2.469-.32c-1.592-.641-2.729-2.082-2.957-3.748a5.234 5.234 0 0 1 .292-2.498c.097-.32.26-.641.422-1.025.227-.512.487-1.057.747-1.602l.033-.064a347.406 347.406 0 0 1 7.148-14.382l.097-.192c.26-.48.52-.993.78-1.473.26-.513.552-.993.91-1.409.682-.769 1.592-1.185 2.599-1.185s1.917.416 2.599 1.185c.357.416.65.897.91 1.409.26.48.52.993.78 1.473l.097.192a424.08 424.08 0 0 1 7.115 14.414v.032c.26.513.487 1.089.747 1.602.162.384.325.705.422 1.025.26.833.357 1.634.227 2.466z"/>
    </symbol>
    <symbol id="icon-facebook" viewBox="0 0 32 32">
      <path d="M18.179 27.637V17.022h3.631l.545-4.138h-4.176v-2.642c0-1.198.338-2.014 2.091-2.014l2.232-.001V4.526c-.386-.049-1.711-.162-3.253-.162-3.221 0-5.425 1.928-5.425 5.468v3.051h-3.642v4.138h3.642v10.615h4.356z"/>
    </symbol>
    <symbol id="icon-instagram" viewBox="0 0 32 32">
      <path d="M17.371 2.669c.973-.004 1.946.006 2.919.029l.259.009c.299.011.593.024.949.04 1.419.067 2.387.291 3.236.62a6.49 6.49 0 0 1 2.363 1.539 6.543 6.543 0 0 1 1.537 2.361c.329.849.553 1.819.62 3.237.016.355.029.651.04.949l.008.259c.024.972.034 1.945.031 2.917l.001.995v1.747c.003.973-.007 1.946-.031 2.919l-.008.259c-.011.299-.024.593-.04.949-.067 1.419-.293 2.387-.621 3.236a6.53 6.53 0 0 1-1.537 2.363 6.55 6.55 0 0 1-2.363 1.537c-.849.329-1.817.553-3.236.62-.356.016-.651.029-.949.04l-.259.008c-.973.024-1.946.034-2.919.031l-2.74.001c-.973.003-1.946-.007-2.919-.031l-.259-.008a74.466 74.466 0 0 1-.949-.04c-1.419-.067-2.387-.293-3.237-.621a6.513 6.513 0 0 1-2.361-1.537 6.534 6.534 0 0 1-1.539-2.363c-.329-.849-.553-1.817-.62-3.236-.015-.316-.028-.633-.04-.949L2.7 20.29a101.46 101.46 0 0 1-.033-2.919V14.63c-.004-.973.006-1.945.029-2.917l.009-.259c.011-.299.024-.595.04-.949.067-1.42.291-2.387.62-3.237a6.506 6.506 0 0 1 1.541-2.36 6.525 6.525 0 0 1 2.36-1.54c.851-.329 1.817-.553 3.237-.62l.949-.04.259-.007c.972-.025 1.945-.036 2.917-.033l2.741.001zM16 9.335c-.883-.012-1.76.151-2.58.48s-1.566.818-2.195 1.439A6.666 6.666 0 0 0 16 22.667a6.67 6.67 0 0 0 4.714-11.381A6.666 6.666 0 0 0 16 9.335zm0 2.667a3.99 3.99 0 0 1 2.876 1.145 4.004 4.004 0 0 1 .001 5.709 3.986 3.986 0 0 1-2.875 1.145 4.003 4.003 0 0 1-4-4 4.003 4.003 0 0 1 4-4l-.001.001zm7-4.667a1.669 1.669 0 0 0 0 3.332 1.667 1.667 0 0 0 0-3.332v.003z"/>
    </symbol>
    <symbol id="icon-twitter" viewBox="0 0 32 32">
      <path d="M29.091 8.195c-.91.403-1.887.677-2.913.799a5.09 5.09 0 0 0 2.23-2.804 10.234 10.234 0 0 1-3.223 1.232 5.073 5.073 0 0 0-8.644 4.625 14.403 14.403 0 0 1-10.455-5.3 5.037 5.037 0 0 0-.686 2.55c0 1.76.896 3.313 2.256 4.221a5.07 5.07 0 0 1-2.298-.637v.063a5.078 5.078 0 0 0 4.068 4.974 5.154 5.154 0 0 1-1.337.178c-.328 0-.644-.032-.955-.094a5.076 5.076 0 0 0 4.737 3.523 10.175 10.175 0 0 1-6.3 2.168c-.409 0-.813-.025-1.21-.07a14.336 14.336 0 0 0 7.775 2.282c9.331 0 14.432-7.729 14.432-14.432l-.017-.657a10.117 10.117 0 0 0 2.537-2.621z"/>
    </symbol>
    <symbol id="icon-Logo" viewBox="0 0 156 32">
      <path d="M111.032 10.414h.941c10.246 0 11.45 5.145 11.45 8.056v.657c0 2.868-1.182 8.144-11.45 8.144h-.941c-10.311 0-11.472-5.276-11.472-8.144v-.657c0-2.912 1.16-8.056 11.472-8.056zm7.049 8.516v-.306c0-1.861-1.073-4.269-6.59-4.269-5.605 0-6.59 2.408-6.59 4.269v.263c0 1.861 1.073 4.422 6.59 4.422 5.473 0 6.59-2.496 6.59-4.379zM83.236 10.699h5.101v12.238h11.319v4.05H83.237V10.699zM74.086 20.332l-3.153-6.108-3.021 6.108h6.174zm3.415 6.655-1.532-2.977h-9.874l-1.467 2.977h-5.189l8.232-16.288h6.612l8.713 16.288h-5.495zM50.048 27.271h-.898c-9.436 0-10.903-5.276-10.903-8.166v-.635c0-2.955 1.27-8.056 10.903-8.056h.898c9.436 0 10.903 4.51 10.903 6.415v.241h-5.407c-.131-.438-.788-2.715-5.955-2.715-4.882 0-5.999 2.189-5.999 4.225v.263c0 1.927 1.292 4.466 6.042 4.466 5.276 0 5.801-2.518 5.933-2.89h5.407v.241c0 2.058-1.62 6.612-10.924 6.612zM20.106 10.699H37.27v3.7H25.141v2.408h11.844v3.722H25.141V23.2h12.347v3.787H20.105V10.699zM2.462 10.699h5.101v12.238h11.318v4.05H2.462V10.699zM71.385 6.311 73.997.567h4.57l-4.57 5.744h-2.612zM151.703 27.419h-3.094V11.138h3.094v16.281zm-1.465-20.156c-1.172 0-2.116-.944-2.116-2.117s.944-2.117 2.116-2.117c1.173 0 2.117.944 2.117 2.117s-.944 2.117-2.117 2.117zM134.676 27.94c-5.633 0-6.676-4.559-6.676-9.313v-7.489h3.126v11.56c0 3.549 1.563 4.754 3.516 4.754 6.545 0 7.457-11.592 7.457-16.314h3.061l.032 16.281h-3.093v-9.508c-.684 3.94-2.442 10.029-7.424 10.029z"/>
    </symbol>
  </defs>
</svg>
